STARTFONT 2.1
COMMENT  
COMMENT  WARNING:  This bdf file was generated from a font server using
COMMENT  fstobdf.  The resulting font is subject to the same copyright,
COMMENT  license, and trademark restrictions as the original font.  The
COMMENT  authors and distributors of fstobdf disclaim all liability for
COMMENT  misuse of the program or its output.
COMMENT  
FONT -artwiz-gelly-medium-r-normal--10-100-75-75-p-90-iso646.1991-irv
SIZE 1 75 75
FONTBOUNDINGBOX 9 9 -1 -2
STARTPROPERTIES 11
POINT_SIZE 10
RESOLUTION_X 75
RESOLUTION_Y 75
WEIGHT 10
RESOLUTION 103
PIXEL_SIZE 10
QUAD_WIDTH 1039
FONT "-artwiz-gelly-medium-r-normal--10-100-75-75-p-90-iso646.1991-irv"
DEFAULT_CHAR 0
FONT_ASCENT 8
FONT_DESCENT 2
ENDPROPERTIES
CHARS 95
STARTCHAR space
ENCODING 32
SWIDTH 4800 0
DWIDTH 5 0
BBX 0 0 0 0
BITMAP
ENDCHAR
STARTCHAR exclam
ENCODING 33
SWIDTH 2880 0
DWIDTH 3 0
BBX 1 7 1 0
BITMAP
80
80
80
80
00
80
80
ENDCHAR
STARTCHAR quotedbl
ENCODING 34
SWIDTH 4800 0
DWIDTH 5 0
BBX 3 3 1 4
BITMAP
a0
a0
a0
ENDCHAR
STARTCHAR numbersign
ENCODING 35
SWIDTH 7680 0
DWIDTH 8 0
BBX 6 5 1 1
BITMAP
48
fc
48
fc
48
ENDCHAR
STARTCHAR dollar
ENCODING 36
SWIDTH 6720 0
DWIDTH 7 0
BBX 5 8 1 -1
BITMAP
20
78
a0
70
28
28
f0
20
ENDCHAR
STARTCHAR percent
ENCODING 37
SWIDTH 6720 0
DWIDTH 7 0
BBX 5 6 1 0
BITMAP
90
90
20
20
48
48
ENDCHAR
STARTCHAR ampersand
ENCODING 38
SWIDTH 5760 0
DWIDTH 6 0
BBX 5 7 0 0
BITMAP
10
38
50
38
50
38
10
ENDCHAR
STARTCHAR apostrophe
ENCODING 39
SWIDTH 2880 0
DWIDTH 3 0
BBX 2 3 0 4
BITMAP
40
40
80
ENDCHAR
STARTCHAR parenleft
ENCODING 40
SWIDTH 3840 0
DWIDTH 4 0
BBX 2 8 1 -1
BITMAP
40
80
80
80
80
80
80
40
ENDCHAR
STARTCHAR parenright
ENCODING 41
SWIDTH 3840 0
DWIDTH 4 0
BBX 2 8 1 -1
BITMAP
80
40
40
40
40
40
40
80
ENDCHAR
STARTCHAR asterisk
ENCODING 42
SWIDTH 5760 0
DWIDTH 6 0
BBX 4 5 1 1
BITMAP
90
60
f0
60
90
ENDCHAR
STARTCHAR plus
ENCODING 43
SWIDTH 6720 0
DWIDTH 7 0
BBX 5 5 1 1
BITMAP
20
20
f8
20
20
ENDCHAR
STARTCHAR comma
ENCODING 44
SWIDTH 2880 0
DWIDTH 3 0
BBX 2 4 0 -2
BITMAP
40
40
40
80
ENDCHAR
STARTCHAR minus
ENCODING 45
SWIDTH 5760 0
DWIDTH 6 0
BBX 4 1 1 3
BITMAP
f0
ENDCHAR
STARTCHAR period
ENCODING 46
SWIDTH 2880 0
DWIDTH 3 0
BBX 1 2 1 0
BITMAP
80
80
ENDCHAR
STARTCHAR slash
ENCODING 47
SWIDTH 5760 0
DWIDTH 6 0
BBX 4 8 1 -1
BITMAP
10
10
20
20
40
40
80
80
ENDCHAR
STARTCHAR 0
ENCODING 48
SWIDTH 6720 0
DWIDTH 7 0
BBX 5 6 1 0
BITMAP
70
88
88
88
88
70
ENDCHAR
STARTCHAR 1
ENCODING 49
SWIDTH 3840 0
DWIDTH 4 0
BBX 2 6 1 0
BITMAP
40
c0
40
40
40
40
ENDCHAR
STARTCHAR 2
ENCODING 50
SWIDTH 6720 0
DWIDTH 7 0
BBX 5 6 1 0
BITMAP
70
88
08
70
80
f8
ENDCHAR
STARTCHAR 3
ENCODING 51
SWIDTH 6720 0
DWIDTH 7 0
BBX 5 6 1 0
BITMAP
f0
08
70
08
08
f0
ENDCHAR
STARTCHAR 4
ENCODING 52
SWIDTH 6720 0
DWIDTH 7 0
BBX 5 6 1 0
BITMAP
28
48
88
f8
08
08
ENDCHAR
STARTCHAR 5
ENCODING 53
SWIDTH 6720 0
DWIDTH 7 0
BBX 5 6 1 0
BITMAP
f0
80
f0
08
88
70
ENDCHAR
STARTCHAR 6
ENCODING 54
SWIDTH 6720 0
DWIDTH 7 0
BBX 5 6 1 0
BITMAP
70
80
f0
88
88
70
ENDCHAR
STARTCHAR 7
ENCODING 55
SWIDTH 6720 0
DWIDTH 7 0
BBX 5 6 1 0
BITMAP
f8
08
10
10
20
20
ENDCHAR
STARTCHAR 8
ENCODING 56
SWIDTH 6720 0
DWIDTH 7 0
BBX 5 6 1 0
BITMAP
70
88
70
88
88
70
ENDCHAR
STARTCHAR 9
ENCODING 57
SWIDTH 6720 0
DWIDTH 7 0
BBX 5 6 1 0
BITMAP
70
88
88
78
08
70
ENDCHAR
STARTCHAR colon
ENCODING 58
SWIDTH 2880 0
DWIDTH 3 0
BBX 1 6 1 0
BITMAP
80
80
00
00
80
80
ENDCHAR
STARTCHAR semicolon
ENCODING 59
SWIDTH 2880 0
DWIDTH 3 0
BBX 2 8 0 -2
BITMAP
40
40
00
00
40
40
40
80
ENDCHAR
STARTCHAR less
ENCODING 60
SWIDTH 5760 0
DWIDTH 6 0
BBX 4 7 1 0
BITMAP
10
20
40
80
40
20
10
ENDCHAR
STARTCHAR equal
ENCODING 61
SWIDTH 6720 0
DWIDTH 7 0
BBX 5 3 1 2
BITMAP
f8
00
f8
ENDCHAR
STARTCHAR greater
ENCODING 62
SWIDTH 5760 0
DWIDTH 6 0
BBX 4 7 1 0
BITMAP
80
40
20
10
20
40
80
ENDCHAR
STARTCHAR question
ENCODING 63
SWIDTH 6720 0
DWIDTH 7 0
BBX 5 7 1 0
BITMAP
70
88
10
20
20
00
20
ENDCHAR
STARTCHAR at
ENCODING 64
SWIDTH 6720 0
DWIDTH 7 0
BBX 5 6 1 0
BITMAP
70
88
b8
b8
80
78
ENDCHAR
STARTCHAR A
ENCODING 65
SWIDTH 6720 0
DWIDTH 7 0
BBX 5 6 1 0
BITMAP
70
88
88
f8
88
88
ENDCHAR
STARTCHAR B
ENCODING 66
SWIDTH 6720 0
DWIDTH 7 0
BBX 5 6 1 0
BITMAP
f0
88
f0
88
88
f0
ENDCHAR
STARTCHAR C
ENCODING 67
SWIDTH 5760 0
DWIDTH 6 0
BBX 5 6 1 0
BITMAP
70
88
80
80
88
70
ENDCHAR
STARTCHAR D
ENCODING 68
SWIDTH 6720 0
DWIDTH 7 0
BBX 5 6 1 0
BITMAP
f0
88
88
88
88
f0
ENDCHAR
STARTCHAR E
ENCODING 69
SWIDTH 6720 0
DWIDTH 7 0
BBX 5 6 1 0
BITMAP
f8
80
f0
80
80
f8
ENDCHAR
STARTCHAR F
ENCODING 70
SWIDTH 6720 0
DWIDTH 7 0
BBX 5 6 1 0
BITMAP
f8
80
f0
80
80
80
ENDCHAR
STARTCHAR G
ENCODING 71
SWIDTH 6720 0
DWIDTH 7 0
BBX 5 6 1 0
BITMAP
60
80
b8
88
88
70
ENDCHAR
STARTCHAR H
ENCODING 72
SWIDTH 6720 0
DWIDTH 7 0
BBX 5 6 1 0
BITMAP
88
88
f8
88
88
88
ENDCHAR
STARTCHAR I
ENCODING 73
SWIDTH 4800 0
DWIDTH 5 0
BBX 3 6 1 0
BITMAP
e0
40
40
40
40
e0
ENDCHAR
STARTCHAR J
ENCODING 74
SWIDTH 6720 0
DWIDTH 7 0
BBX 5 6 1 0
BITMAP
18
08
08
08
88
70
ENDCHAR
STARTCHAR K
ENCODING 75
SWIDTH 6720 0
DWIDTH 7 0
BBX 5 6 1 0
BITMAP
88
90
e0
90
88
88
ENDCHAR
STARTCHAR L
ENCODING 76
SWIDTH 6720 0
DWIDTH 7 0
BBX 5 6 1 0
BITMAP
80
80
80
80
80
f8
ENDCHAR
STARTCHAR M
ENCODING 77
SWIDTH 8640 0
DWIDTH 9 0
BBX 7 6 1 0
BITMAP
82
c6
aa
92
82
82
ENDCHAR
STARTCHAR N
ENCODING 78
SWIDTH 6720 0
DWIDTH 7 0
BBX 5 6 1 0
BITMAP
88
c8
a8
98
88
88
ENDCHAR
STARTCHAR O
ENCODING 79
SWIDTH 6720 0
DWIDTH 7 0
BBX 5 6 1 0
BITMAP
70
88
88
88
88
70
ENDCHAR
STARTCHAR P
ENCODING 80
SWIDTH 6720 0
DWIDTH 7 0
BBX 5 6 1 0
BITMAP
f0
88
88
f0
80
80
ENDCHAR
STARTCHAR Q
ENCODING 81
SWIDTH 6720 0
DWIDTH 7 0
BBX 5 7 1 -1
BITMAP
70
88
88
88
88
70
18
ENDCHAR
STARTCHAR R
ENCODING 82
SWIDTH 6720 0
DWIDTH 7 0
BBX 5 6 1 0
BITMAP
f0
88
88
f0
88
88
ENDCHAR
STARTCHAR S
ENCODING 83
SWIDTH 6720 0
DWIDTH 7 0
BBX 5 6 1 0
BITMAP
78
80
70
08
08
f0
ENDCHAR
STARTCHAR T
ENCODING 84
SWIDTH 6720 0
DWIDTH 7 0
BBX 5 6 1 0
BITMAP
f8
20
20
20
20
20
ENDCHAR
STARTCHAR U
ENCODING 85
SWIDTH 6720 0
DWIDTH 7 0
BBX 5 6 1 0
BITMAP
88
88
88
88
88
70
ENDCHAR
STARTCHAR V
ENCODING 86
SWIDTH 6720 0
DWIDTH 7 0
BBX 5 6 1 0
BITMAP
88
88
88
50
50
20
ENDCHAR
STARTCHAR W
ENCODING 87
SWIDTH 8640 0
DWIDTH 9 0
BBX 7 6 1 0
BITMAP
82
92
92
92
92
6c
ENDCHAR
STARTCHAR X
ENCODING 88
SWIDTH 6720 0
DWIDTH 7 0
BBX 5 6 1 0
BITMAP
88
50
20
50
88
88
ENDCHAR
STARTCHAR Y
ENCODING 89
SWIDTH 6720 0
DWIDTH 7 0
BBX 5 6 1 0
BITMAP
88
50
20
20
20
20
ENDCHAR
STARTCHAR Z
ENCODING 90
SWIDTH 6720 0
DWIDTH 7 0
BBX 5 6 1 0
BITMAP
f8
10
20
40
80
f8
ENDCHAR
STARTCHAR bracketleft
ENCODING 91
SWIDTH 4800 0
DWIDTH 5 0
BBX 4 9 1 -2
BITMAP
f0
80
80
80
80
80
80
80
f0
ENDCHAR
STARTCHAR backslash
ENCODING 92
SWIDTH 5760 0
DWIDTH 6 0
BBX 4 8 1 -1
BITMAP
80
80
40
40
20
20
10
10
ENDCHAR
STARTCHAR bracketright
ENCODING 93
SWIDTH 5760 0
DWIDTH 6 0
BBX 4 9 1 -2
BITMAP
f0
10
10
10
10
10
10
10
f0
ENDCHAR
STARTCHAR asciicircum
ENCODING 94
SWIDTH 6720 0
DWIDTH 7 0
BBX 5 3 1 4
BITMAP
20
50
88
ENDCHAR
STARTCHAR underscore
ENCODING 95
SWIDTH 6720 0
DWIDTH 7 0
BBX 5 1 1 0
BITMAP
f8
ENDCHAR
STARTCHAR grave
ENCODING 96
SWIDTH 2880 0
DWIDTH 3 0
BBX 2 3 1 4
BITMAP
40
80
80
ENDCHAR
STARTCHAR a
ENCODING 97
SWIDTH 6720 0
DWIDTH 7 0
BBX 5 5 1 0
BITMAP
70
08
78
88
78
ENDCHAR
STARTCHAR b
ENCODING 98
SWIDTH 6720 0
DWIDTH 7 0
BBX 5 7 1 0
BITMAP
80
80
f0
88
88
88
f0
ENDCHAR
STARTCHAR c
ENCODING 99
SWIDTH 6720 0
DWIDTH 7 0
BBX 5 5 1 0
BITMAP
78
80
80
80
78
ENDCHAR
STARTCHAR d
ENCODING 100
SWIDTH 6720 0
DWIDTH 7 0
BBX 5 7 1 0
BITMAP
08
08
78
88
88
88
78
ENDCHAR
STARTCHAR e
ENCODING 101
SWIDTH 6720 0
DWIDTH 7 0
BBX 5 5 1 0
BITMAP
70
88
f8
80
78
ENDCHAR
STARTCHAR f
ENCODING 102
SWIDTH 5760 0
DWIDTH 6 0
BBX 4 7 1 0
BITMAP
30
40
f0
40
40
40
40
ENDCHAR
STARTCHAR g
ENCODING 103
SWIDTH 6720 0
DWIDTH 7 0
BBX 5 7 1 -2
BITMAP
78
88
88
88
78
08
70
ENDCHAR
STARTCHAR h
ENCODING 104
SWIDTH 6720 0
DWIDTH 7 0
BBX 5 7 1 0
BITMAP
80
80
b0
c8
88
88
88
ENDCHAR
STARTCHAR i
ENCODING 105
SWIDTH 2880 0
DWIDTH 3 0
BBX 1 7 1 0
BITMAP
80
00
80
80
80
80
80
ENDCHAR
STARTCHAR j
ENCODING 106
SWIDTH 2880 0
DWIDTH 3 0
BBX 3 9 -1 -2
BITMAP
20
00
20
20
20
20
20
20
c0
ENDCHAR
STARTCHAR k
ENCODING 107
SWIDTH 5760 0
DWIDTH 6 0
BBX 4 7 1 0
BITMAP
80
80
90
a0
c0
a0
90
ENDCHAR
STARTCHAR l
ENCODING 108
SWIDTH 2880 0
DWIDTH 3 0
BBX 1 7 1 0
BITMAP
80
80
80
80
80
80
80
ENDCHAR
STARTCHAR m
ENCODING 109
SWIDTH 8640 0
DWIDTH 9 0
BBX 7 5 1 0
BITMAP
ec
92
92
92
92
ENDCHAR
STARTCHAR n
ENCODING 110
SWIDTH 6720 0
DWIDTH 7 0
BBX 5 5 1 0
BITMAP
b0
c8
88
88
88
ENDCHAR
STARTCHAR o
ENCODING 111
SWIDTH 6720 0
DWIDTH 7 0
BBX 5 5 1 0
BITMAP
70
88
88
88
70
ENDCHAR
STARTCHAR p
ENCODING 112
SWIDTH 6720 0
DWIDTH 7 0
BBX 5 7 1 -2
BITMAP
f0
88
88
88
f0
80
80
ENDCHAR
STARTCHAR q
ENCODING 113
SWIDTH 6720 0
DWIDTH 7 0
BBX 5 7 1 -2
BITMAP
78
88
88
88
78
08
08
ENDCHAR
STARTCHAR r
ENCODING 114
SWIDTH 5760 0
DWIDTH 6 0
BBX 4 5 1 0
BITMAP
b0
c0
80
80
80
ENDCHAR
STARTCHAR s
ENCODING 115
SWIDTH 6720 0
DWIDTH 7 0
BBX 5 5 1 0
BITMAP
78
80
70
08
f0
ENDCHAR
STARTCHAR t
ENCODING 116
SWIDTH 4800 0
DWIDTH 5 0
BBX 3 6 1 0
BITMAP
40
e0
40
40
40
40
ENDCHAR
STARTCHAR u
ENCODING 117
SWIDTH 6720 0
DWIDTH 7 0
BBX 5 5 1 0
BITMAP
88
88
88
98
68
ENDCHAR
STARTCHAR v
ENCODING 118
SWIDTH 6720 0
DWIDTH 7 0
BBX 5 5 1 0
BITMAP
88
88
50
50
20
ENDCHAR
STARTCHAR w
ENCODING 119
SWIDTH 8640 0
DWIDTH 9 0
BBX 7 5 1 0
BITMAP
82
92
92
92
6c
ENDCHAR
STARTCHAR x
ENCODING 120
SWIDTH 6720 0
DWIDTH 7 0
BBX 5 5 1 0
BITMAP
88
50
20
50
88
ENDCHAR
STARTCHAR y
ENCODING 121
SWIDTH 6720 0
DWIDTH 7 0
BBX 5 7 1 -2
BITMAP
88
88
88
88
78
08
70
ENDCHAR
STARTCHAR z
ENCODING 122
SWIDTH 6720 0
DWIDTH 7 0
BBX 5 5 1 0
BITMAP
f8
10
20
40
f8
ENDCHAR
STARTCHAR braceleft
ENCODING 123
SWIDTH 5760 0
DWIDTH 6 0
BBX 4 9 1 -2
BITMAP
30
40
40
40
c0
40
40
40
30
ENDCHAR
STARTCHAR bar
ENCODING 124
SWIDTH 2880 0
DWIDTH 3 0
BBX 1 8 1 -1
BITMAP
80
80
80
80
80
80
80
80
ENDCHAR
STARTCHAR braceright
ENCODING 125
SWIDTH 5760 0
DWIDTH 6 0
BBX 4 9 1 -2
BITMAP
c0
20
20
20
30
20
20
20
c0
ENDCHAR
STARTCHAR asciitilde
ENCODING 126
SWIDTH 6720 0
DWIDTH 7 0
BBX 5 3 1 3
BITMAP
48
a8
90
ENDCHAR
ENDFONT
